<?xml version="1.0" encoding="UTF-8"?>
<!-- Created with Inkscape (http://www.inkscape.org/) -->
<svg width="512" height="512" version="1.1" viewBox="0 0 135.47 135.47" xmlns="http://www.w3.org/2000/svg">
 <g>
  <g>
   <g>
    <circle transform="rotate(41.907)" cx="95.22" cy="3.9828" r="53.917" fill="#fff" stop-color="#000000" stroke="#106e7d" stroke-width="6.1233" style="font-variation-settings:normal"/>
    <path transform="matrix(.086594 .13536 -.13536 .086594 106.03 3.2196)" d="m344.73 107.09 34.742-54.174 59.09 114.35-128.57-6.001z" fill="#10707f" stop-color="#000000" stroke="#d7d6b7" stroke-width="7.6211" style="font-variation-settings:normal"/>
    <path transform="matrix(-.086803 -.13523 .13523 -.086803 30.139 133.58)" d="m344.73 107.09 34.742-54.174 59.09 114.35-128.57-6.001z" fill="#10707f" stop-color="#000000" stroke="#d7d6b7" stroke-width="7.6211" style="font-variation-settings:normal"/>
   </g>
   <g transform="matrix(1.1572 0 0 1.1572 -8.611 -9.6281)" stroke="#10717f" stroke-linecap="round" stroke-linejoin="round" stroke-width="1.0583">
    <rect transform="rotate(.073625)" x="48.624" y="75.059" width="34.625" height="21.609" fill="#fff" stop-color="#000000"/>
    <path d="m48.5 96.73 17.668-15.019 16.958 15.063z" fill="#fff"/>
    <path d="m48.527 75.122 17.343 13.581 17.282-13.536z" fill="#10707f" stop-color="#000000" style="font-variation-settings:normal"/>
   </g>
   <g transform="matrix(1.1572 0 0 1.1572 -8.611 -9.6281)" fill="#10707f" stop-color="#000000" stroke="#0f7180" stroke-width=".9146" style="font-variation-settings:normal">
    <path d="m52.01 37.782-4.4875-0.60242 0.21933 4.059-3.3491 0.56501-1.4685-3.7227-3.9111 2.2468 2.431 3.0562-2.3183 2.5832-3.2642-2.1279-1.8568 4.0176 3.7827 1.0629-0.4306 3.4029-3.9059 0.21105 0.96551 4.3643 3.6544-1.3112 1.6569 2.9444-2.9755 2.5035 3.1565 2.9786 2.1641-3.3045 3.0375 1.4873-0.9905 3.7019 4.5599 0.52169-0.21106-3.9059 3.4256-0.56915 1.3029 3.5012 3.9597-2.0574-2.4755-3.169 2.3628-2.4703 3.3449 2.2003 1.7398-4.0497-3.7827-1.063 0.42646-3.4794 3.8293-0.20692-0.76784-4.2598-3.6544 1.3112-1.7376-3.0169 3.0562-2.431-3.2331-2.9745-2.2045 3.2683-3.0375-1.4873z" stop-color="#000000" style="font-variation-settings:normal"/>
    <path d="m87.61 37.782-4.4875-0.60242 0.21933 4.059-3.3491 0.56501-1.4685-3.7227-3.9111 2.2468 2.431 3.0562-2.3183 2.5832-3.2642-2.1279-1.8568 4.0176 3.7827 1.0629-0.4306 3.4029-3.9059 0.21105 0.96551 4.3643 3.6544-1.3112 1.6569 2.9444-2.9755 2.5035 3.1565 2.9786 2.1641-3.3045 3.0375 1.4873-0.9905 3.7019 4.5599 0.52169-0.21106-3.9059 3.4256-0.56915 1.3029 3.5012 3.9597-2.0574-2.4755-3.169 2.3628-2.4703 3.3449 2.2003 1.7398-4.0497-3.7827-1.063 0.42646-3.4794 3.8293-0.20692-0.76784-4.2598-3.6544 1.3112-1.7376-3.0169 3.0562-2.431-3.2331-2.9745-2.2045 3.2683-3.0375-1.4873z" stop-color="#000000" style="font-variation-settings:normal"/>
   </g>
  </g>
 </g>
</svg>
